<svg width="264" height="264" viewBox="0 0 264 264" fill="none" xmlns="http://www.w3.org/2000/svg">
<g filter="url(#filter0_d_15_2)">
<g clip-path="url(#clip0_15_2)">
<rect x="4" width="256" height="256" rx="60" fill="white"/>
<rect width="256" height="85" transform="translate(4)" fill="#7521FE"/>
<rect width="256" height="86" transform="translate(4 85)" fill="#863CFF"/>
<rect width="256" height="85" transform="translate(4 171)" fill="#9352FF"/>
<path d="M149.536 99L191.869 172.308M115.464 99H200.129M98.4275 128.5L140.76 55.1925M115.464 158L73.1313 84.6925M149.536 158H64.8712M166.573 128.5L124.24 201.808M206.25 128.5C206.25 169.231 173.231 202.25 132.5 202.25C91.769 202.25 58.75 169.231 58.75 128.5C58.75 87.769 91.769 54.75 132.5 54.75C173.231 54.75 206.25 87.769 206.25 128.5Z" stroke="white" stroke-width="8" stroke-linecap="round" stroke-linejoin="round"/>
</g>
</g>
<defs>
<filter id="filter0_d_15_2" x="0" y="0" width="264" height="264" filterUnits="userSpaceOnUse" color-interpolation-filters="sRGB">
<feFlood flood-opacity="0" result="BackgroundImageFix"/>
<feColorMatrix in="SourceAlpha" type="matrix" values="0 0 0 0 0 0 0 0 0 0 0 0 0 0 0 0 0 0 127 0" result="hardAlpha"/>
<feOffset dy="4"/>
<feGaussianBlur stdDeviation="2"/>
<feComposite in2="hardAlpha" operator="out"/>
<feColorMatrix type="matrix" values="0 0 0 0 0 0 0 0 0 0 0 0 0 0 0 0 0 0 0.25 0"/>
<feBlend mode="normal" in2="BackgroundImageFix" result="effect1_dropShadow_15_2"/>
<feBlend mode="normal" in="SourceGraphic" in2="effect1_dropShadow_15_2" result="shape"/>
</filter>
<clipPath id="clip0_15_2">
<rect x="4" width="256" height="256" rx="60" fill="white"/>
</clipPath>
</defs>
</svg>
